name Walk3.mot
datacolumns 19
datarows 22
range 1.17000000 1.27500000
endheader

                time	   L_ground_force_vx	   L_ground_force_vy	   L_ground_force_vz	   L_ground_force_px	   L_ground_force_py	   L_ground_force_pz	   R_ground_force_vx	   R_ground_force_vy	   R_ground_force_vz	   R_ground_force_px	   R_ground_force_py	   R_ground_force_pz	   L_ground_torque_x	   L_ground_torque_y	   L_ground_torque_z	   R_ground_torque_x	   R_ground_torque_y	   R_ground_torque_z	
          1.17000000	         -1.36194257	         55.76884528	         -3.80487335	          0.00140357	          0.00000000	         -0.00032275	         -0.00000000	          0.00000000	          0.00000000	          0.00000000	          0.00000000	          0.00000000	          0.00000000	          0.05560592	          0.00000000	          0.00000000	         -0.00000000	          0.00000000	
          1.17500000	         -3.83428065	         82.04918376	         -5.68300561	         -0.09703581	          0.00000000	         -0.00770682	         -0.00000000	          0.00000000	         -0.00000000	          0.00000000	          0.00000000	         -0.00000000	          0.00000000	          0.10300077	          0.00000000	          0.00000000	         -0.00000000	          0.00000000	
          1.18000000	         -7.07636708	        111.29457864	         -7.77264131	         -0.18923337	          0.00000000	         -0.01467404	         -0.00000000	          0.00000000	         -0.00000000	         -0.00000000	          0.00000000	         -0.00000000	          0.00000000	          0.16628770	          0.00000000	          0.00000000	         -0.00000000	          0.00000000	
          1.18500000	        -11.15069036	        141.99247031	         -9.96661657	         -0.27020707	          0.00000000	         -0.02085700	         -0.00000000	          0.00000000	         -0.00000000	         -0.00000000	          0.00000000	         -0.00000000	          0.00000000	          0.24614508	          0.00000000	          0.00000000	          0.00000000	          0.00000000	
          1.19000000	        -16.07076100	        172.40415680	        -12.12017936	         -0.33744162	          0.00000000	         -0.02607322	          0.00000000	         -0.00000000	         -0.00000000	         -0.00000000	          0.00000000	         -0.00000000	          0.00000000	          0.34151619	          0.00000000	          0.00000000	          0.00000000	          0.00000000	
          1.19500000	        -21.75731062	        201.18510672	        -14.07496463	         -0.39040014	          0.00000000	         -0.03028550	          0.00000000	         -0.00000001	         -0.00000000	         -0.00000000	          0.00000000	         -0.00000000	          0.00000000	          0.44950545	          0.00000000	          0.00000000	          0.00000000	          0.00000000	
          1.20000000	        -28.02399147	        227.54272711	        -15.69425495	         -0.42986047	          0.00000000	         -0.03354937	          0.00000000	         -0.00000001	         -0.00000000	         -0.00000000	          0.00000000	         -0.00000000	          0.00000000	          0.56565120	          0.00000000	          0.00000000	          0.00000000	          0.00000000	
          1.20500000	        -34.61007799	        251.13057346	        -16.88331973	         -0.45737915	          0.00000000	         -0.03597452	          0.00000000	         -0.00000002	         -0.00000000	         -0.00000000	          0.00000000	         -0.00000000	          0.00000000	          0.68399715	          0.00000000	          0.00000000	          0.00000000	          0.00000000	
          1.21000000	        -41.23050859	        272.00516254	        -17.59133842	         -0.47488353	          0.00000000	         -0.03769739	          0.00000000	         -0.00000003	         -0.00000000	         -0.00000000	          0.00000000	         -0.00000000	          0.00000000	          0.79781941	          0.00000000	          0.00000000	          0.00000000	          0.00000000	
          1.21500000	        -47.63763469	        290.55291459	        -17.80327142	         -0.48438182	          0.00000000	         -0.03886253	          0.00000001	         -0.00000004	         -0.00000000	         -0.00000000	          0.00000000	         -0.00000000	          0.00000000	          0.90096664	          0.00000000	          0.00000000	          0.00000000	          0.00000000	
          1.22000000	        -53.67759990	        307.34915038	        -17.52646310	         -0.48777277	          0.00000000	         -0.03960903	          0.00000001	         -0.00000005	         -0.00000000	         -0.00000000	          0.00000000	         -0.00000000	          0.00000000	          0.98883741	          0.00000000	          0.00000000	          0.00000000	          0.00000000	
          1.22500000	        -59.31246808	        323.01059503	        -16.78172578	         -0.48673668	          0.00000000	         -0.04006124	          0.00000001	         -0.00000006	         -0.00000000	         -0.00000000	          0.00000000	         -0.00000000	          0.00000000	          1.05866340	          0.00000000	          0.00000000	          0.00000000	          0.00000000	
          1.23000000	        -64.59079149	        338.07854065	        -15.60198626	         -0.48268921	          0.00000000	         -0.04031963	          0.00000001	         -0.00000007	         -0.00000000	         -0.00000000	          0.00000000	         -0.00000000	          0.00000000	          1.10982405	          0.00000000	          0.00000000	          0.00000000	          0.00000000	
          1.23500000	        -69.58009948	        352.93496660	        -14.03505792	         -0.47678020	          0.00000000	         -0.04046004	          0.00000001	         -0.00000008	         -0.00000000	         -0.00000000	          0.00000000	         -0.00000000	          0.00000000	          1.14361293	          0.00000000	          0.00000000	          0.00000000	          0.00000000	
          1.24000000	        -74.29747387	        367.75514191	        -12.14713488	         -0.46991766	          0.00000000	         -0.04053689	          0.00000001	         -0.00000008	         -0.00000000	         -0.00000000	          0.00000000	         -0.00000000	          0.00000000	          1.16290199	          0.00000000	          0.00000000	          0.00000000	          0.00000000	
          1.24500000	        -78.67130230	        382.54045439	        -10.02088392	         -0.46279126	          0.00000000	         -0.04058173	          0.00000001	         -0.00000007	          0.00000000	         -0.00000000	          0.00000000	         -0.00000000	          0.00000000	          1.17184368	          0.00000000	          0.00000000	          0.00000000	          0.00000000	
          1.25000000	        -82.55864082	        397.20394217	         -7.74439903	         -0.45589709	          0.00000000	         -0.04060900	          0.00000001	         -0.00000005	          0.00000000	          0.00000000	          0.00000000	          0.00000000	          0.00000000	          1.17512528	          0.00000000	          0.00000000	          0.00000000	          0.00000000	
          1.25500000	        -85.80489411	        411.62321154	         -5.40046737	         -0.44956852	          0.00000000	         -0.04062661	          0.00000001	         -0.00000001	          0.00000000	          0.00000000	          0.00000000	          0.00000000	          0.00000000	          1.17668599	          0.00000000	          0.00000000	          0.00000000	          0.00000000	
          1.26000000	        -88.29884566	        425.66248007	         -3.05912627	         -0.44400450	          0.00000000	         -0.04064081	         -0.00000000	          0.00000006	          0.00000000	          0.00000000	          0.00000000	          0.00000000	          0.00000000	          1.17868116	          0.00000000	          0.00000000	         -0.00000000	          0.00000000	
          1.26500000	        -89.99277435	        439.19933381	         -0.77054142	         -0.43929493	          0.00000000	         -0.04065610	         -0.00000002	          0.00000015	          0.00000000	          0.00000000	          0.00000000	          0.00000000	          0.00000000	          1.18130213	          0.00000000	          0.00000000	         -0.00000000	          0.00000000	
          1.27000000	        -90.89335779	        452.15052356	          1.43381629	         -0.43544733	          0.00000000	         -0.04067461	         -0.00000004	          0.00000028	          0.00000000	          0.00000000	          0.00000000	          0.00000000	          0.00000000	          1.18326055	          0.00000000	          0.00000000	         -0.00000000	          0.00000000	
          1.27500000	        -91.04395755	        464.47554167	          3.53343731	         -0.43241395	          0.00000000	         -0.04069669	         -0.00000006	          0.00000044	          0.00000001	          0.00000000	          0.00000000	          0.00000000	          0.00000000	          1.18254814	          0.00000000	          0.00000000	         -0.00000000	          0.00000000	
